HIERARCHY
ROOT hip
{
  OFFSET 0 0 0
  CHANNELS 6 Xposition Yposition Zposition Zrotation Yrotation Xrotation
  JOINT abdomen
  {
    OFFSET 0 20.6881 -0.73152
    CHANNELS 3 Zrotation Xrotation Yrotation
    JOINT chest
    {
      OFFSET 0 11.7043 -0.48768
      CHANNELS 3 Zrotation Xrotation Yrotation
      JOINT neck
      {
        OFFSET 0 22.1894 -2.19456
        CHANNELS 3 Zrotation Xrotation Yrotation
        JOINT head
        {
          OFFSET -0.24384 7.07133 1.2192
          CHANNELS 3 Zrotation Xrotation Yrotation
          JOINT leftEye
          {
            OFFSET 4.14528 8.04674 8.04672
            CHANNELS 3 Zrotation Xrotation Yrotation
            End Site
            {
              OFFSET 1 0 0
            }
          }
          JOINT rightEye
          {
            OFFSET -3.6576 8.04674 8.04672
            CHANNELS 3 Zrotation Xrotation Yrotation
            End Site
            {
              OFFSET 1 0 0
            }
          }
        }
      }
      JOINT rCollar
      {
        OFFSET -2.68224 19.2634 -4.8768
        CHANNELS 3 Zrotation Xrotation Yrotation
        JOINT rShldr
        {
          OFFSET -8.77824 -1.95073 1.46304
          CHANNELS 3 Zrotation Xrotation Yrotation
          JOINT rForeArm
          {
            OFFSET -28.1742 -1.7115 0.48768
            CHANNELS 3 Zrotation Xrotation Yrotation
            JOINT rHand
            {
              OFFSET -22.5879 0.773209 7.07136
              CHANNELS 3 Zrotation Xrotation Yrotation
              JOINT rThumb1
              {
                OFFSET -1.2192 -0.487915 3.41376
                CHANNELS 3 Zrotation Xrotation Yrotation
                JOINT rThumb2
                {
                  OFFSET -3.37035 -0.52449 3.41376
                  CHANNELS 3 Zrotation Xrotation Yrotation
                  End Site
                  {
                    OFFSET -1.78271 -1.18214 1.43049
                  }
                }
              }
              JOINT rIndex1
              {
                OFFSET -7.75947 0.938293 5.60832
                CHANNELS 3 Zrotation Xrotation Yrotation
                JOINT rIndex2
                {
                  OFFSET -2.54057 -0.884171 1.56538
                  CHANNELS 3 Zrotation Xrotation Yrotation
                  End Site
                  {
                    OFFSET -1.62519 -0.234802 1.16502
                  }
                }
              }
              JOINT rMid1
              {
                OFFSET -8.24714 1.18213 3.41376
                CHANNELS 3 Zrotation Xrotation Yrotation
                JOINT rMid2
                {
                  OFFSET -3.10165 -0.590103 1.0647
                  CHANNELS 3 Zrotation Xrotation Yrotation
                  End Site
                  {
                    OFFSET -2.48547 -0.328903 0.83742
                  }
                }
              }
              JOINT rRing1
              {
                OFFSET -8.82822 0.546677 1.51678
                CHANNELS 3 Zrotation Xrotation Yrotation
                JOINT rRing2
                {
                  OFFSET -2.60934 -0.819778 -0.0198488
                  CHANNELS 3 Zrotation Xrotation Yrotation
                  End Site
                  {
                    OFFSET -2.33842 -0.294052 0.168128
                  }
                }
              }
              JOINT rPinky1
              {
                OFFSET -8.27202 -0.0477905 -0.4584
                CHANNELS 3 Zrotation Xrotation Yrotation
                JOINT rPinky2
                {
                  OFFSET -1.82734 -0.647385 -0.700984
                  CHANNELS 3 Zrotation Xrotation Yrotation
                  End Site
                  {
                    OFFSET -1.69225 -0.51767 -0.607171
                  }
                }
              }
            }
          }
        }
      }
      JOINT lCollar
      {
        OFFSET 2.68224 19.2634 -4.8768
        CHANNELS 3 Zrotation Xrotation Yrotation
        JOINT lShldr
        {
          OFFSET 8.77824 -1.95073 1.46304
          CHANNELS 3 Zrotation Xrotation Yrotation
          JOINT lForeArm
          {
            OFFSET 28.1742 -1.7115 0.48768
            CHANNELS 3 Zrotation Xrotation Yrotation
            JOINT lHand
            {
              OFFSET 22.5879 0.773209 7.07136
              CHANNELS 3 Zrotation Xrotation Yrotation
              JOINT lThumb1
              {
                OFFSET 1.2192 -0.487915 3.41376
                CHANNELS 3 Zrotation Xrotation Yrotation
                JOINT lThumb2
                {
                  OFFSET 3.37035 -0.52449 3.41376
                  CHANNELS 3 Zrotation Xrotation Yrotation
                  End Site
                  {
                    OFFSET 1.78271 -1.18214 1.43049
                  }
                }
              }
              JOINT lIndex1
              {
                OFFSET 7.75947 0.938293 5.60832
                CHANNELS 3 Zrotation Xrotation Yrotation
                JOINT lIndex2
                {
                  OFFSET 2.54057 -0.884171 1.56538
                  CHANNELS 3 Zrotation Xrotation Yrotation
                  End Site
                  {
                    OFFSET 1.62519 -0.234802 1.16502
                  }
                }
              }
              JOINT lMid1
              {
                OFFSET 8.24714 1.18213 3.41376
                CHANNELS 3 Zrotation Xrotation Yrotation
                JOINT lMid2
                {
                  OFFSET 3.10165 -0.590103 1.0647
                  CHANNELS 3 Zrotation Xrotation Yrotation
                  End Site
                  {
                    OFFSET 2.48547 -0.328903 0.83742
                  }
                }
              }
              JOINT lRing1
              {
                OFFSET 8.82822 0.546677 1.51678
                CHANNELS 3 Zrotation Xrotation Yrotation
                JOINT lRing2
                {
                  OFFSET 2.60934 -0.819778 -0.0198488
                  CHANNELS 3 Zrotation Xrotation Yrotation
                  End Site
                  {
                    OFFSET 2.33842 -0.294052 0.168128
                  }
                }
              }
              JOINT lPinky1
              {
                OFFSET 8.27202 -0.0477905 -0.4584
                CHANNELS 3 Zrotation Xrotation Yrotation
                JOINT lPinky2
                {
                  OFFSET 1.82734 -0.647385 -0.700984
                  CHANNELS 3 Zrotation Xrotation Yrotation
                  End Site
                  {
                    OFFSET 1.69225 -0.51767 -0.607171
                  }
                }
              }
            }
          }
        }
      }
    }
  }
  JOINT rButtock
  {
    OFFSET -8.77824 4.35084 1.2192
    CHANNELS 3 Zrotation Xrotation Yrotation
    JOINT rThigh
    {
      OFFSET 0 -1.70687 -2.19456
      CHANNELS 3 Zrotation Xrotation Yrotation
      JOINT rShin
      {
        OFFSET 0 -36.8199 0.73152
        CHANNELS 3 Zrotation Xrotation Yrotation
        JOINT rFoot
        {
          OFFSET 0.73152 -45.1104 -5.12064
          CHANNELS 3 Zrotation Xrotation Yrotation
          End Site
          {
            OFFSET -1.1221 -3.69964 12.103
          }
        }
      }
    }
  }
  JOINT lButtock
  {
    OFFSET 8.77824 4.35084 1.2192
    CHANNELS 3 Zrotation Xrotation Yrotation
    JOINT lThigh
    {
      OFFSET 0 -1.70687 -2.19456
      CHANNELS 3 Zrotation Xrotation Yrotation
      JOINT lShin
      {
        OFFSET 0 -36.8199 0.73152
        CHANNELS 3 Zrotation Xrotation Yrotation
        JOINT lFoot
        {
          OFFSET -0.73152 -45.1104 -5.12064
          CHANNELS 3 Zrotation Xrotation Yrotation
          End Site
          {
            OFFSET 1.1221 -3.69964 12.103
          }
        }
      }
    }
  }
}
MOTION
Frames:	7
Frame Time:	0.03333
0.0 0.0 0.0 0.0 0.0 0.0 0.0 0.0 0.0 0.0 0.0 0.0 0.0 0.0 0.0 0.0 0.0 0.0 0.0 0.0 0.0 0.0 0.0 0.0 0.0 0.0 0.0 0.0 0.0 0.0 0.0 0.0 0.0 0.0 0.0 0.0 0.0 0.0 0.0 0.0 0.0 0.0 0.0 0.0 0.0 0.0 0.0 0.0 0.0 0.0 0.0 0.0 0.0 0.0 0.0 0.0 0.0 0.0 0.0 0.0 0.0 0.0 0.0 0.0 0.0 0.0 0.0 0.0 0.0 0.0 0.0 0.0 0.0 0.0 0.0 0.0 0.0 0.0 0.0 0.0 0.0 0.0 0.0 0.0 0.0 0.0 0.0 0.0 0.0 0.0 0.0 0.0 0.0 0.0 0.0 0.0 0.0 0.0 0.0 0.0 0.0 0.0 0.0 0.0 0.0 0.0 0.0 0.0 0.0 0.0 0.0 0.0 0.0 0.0 0.0 0.0 0.0 0.0 0.0 0.0 0.0 0.0 0.0 0.0 0.0 0.0 0.0 0.0 0.0 0.0 0.0 0.0
-2.2816 51.6949 -156.364 -14.291893 -25.53275 11.450594 8.715884 1.469744 87.775278 -3.263452 -5.919014 -85.478797 7.078376 15.734862 76.2742 -20.354455 1.760798 -90.304475 -0.002894 -0.0 0.000513 -0.002894 -0.0 0.000513 -155.417723 -2.951446 161.718389 121.770655 -15.394523 133.850504 174.503034 15.398918 37.586857 -157.005951 24.370987 133.775805 -93.743771 37.962643 53.548185 -52.756143 -3.062603 45.605723 -46.210431 39.651457 36.318942 -6.566333 18.558932 2.334778 -0.220235 0.638394 0.122339 3.438505 -0.604817 -0.104511 -145.097687 -1.523526 -178.650701 -138.487606 -60.71246 -160.684062 -157.325887 57.245885 -150.516311 72.095728 84.483079 -34.679945 155.61387 -4.236214 -161.991652 -145.839212 11.307978 162.148892 6.786524 14.973033 -39.650609 5.146983 40.220878 -4.528531 -175.880607 -21.2577 -88.493291 -19.983835 -69.287148 -12.952064 90.225629 41.071064 -75.796281 15.287929 29.67333 -4.864163 36.037319 51.722184 -29.834084 168.609777 -21.72109 -144.223801 145.120476 0.185196 179.18699 157.338779 45.32864 -175.556194 87.575932 -50.20699 85.929383 -80.254039 85.527551 40.716348 0.001094 0.000144 -0.001406 -10.190636 14.620722 35.456457 16.333703 29.07939 -87.711319 -52.727338 -29.138479 10.486557 -1.2e-05 -0.000694 1.6e-05 84.883659 -53.468743 -180.0 88.714033 -17.256925 -18.441335 -120.045791 44.534006 31.66515
-2.2736 51.7138 -156.389 -14.265378 -25.479285 11.505975 8.727977 0.958465 96.218386 -3.686545 -5.419107 -94.080765 -7.571562 10.704728 -17.11807 12.151243 -10.798898 5.147046 0.000218 -0.0 -0.003774 0.000349 0.0 0.00069 -44.924574 -86.287529 -66.531967 127.262992 30.044975 -144.136008 -4.841153 -7.058988 108.367067 -8.326787 -30.687639 -7.302816 16.054337 -15.915592 -0.228729 30.964481 -84.040356 -31.078195 -151.351755 -17.158156 121.134664 -79.232136 57.455201 61.548725 -164.721804 -19.553772 144.755643 -176.368313 -41.173008 142.574284 -145.062311 -3.311635 -178.086655 -15.803969 -68.344657 -37.220692 -152.502524 38.522953 -147.799329 -155.837126 36.23915 -146.042819 44.922768 -86.28751 66.530941 -64.493477 31.140601 41.246201 81.676619 44.830633 -98.049828 -9.104887 -5.616122 -7.803727 1.846698 1.813562 -0.312376 110.70402 1.344263 -100.652741 2.712063 4.268498 -1.599296 144.0879 11.462757 -106.733578 86.295641 60.961564 -77.857161 -29.831827 -60.117298 -6.726254 0.000418 0.036427 -0.010743 155.414459 -1.111034 -171.980216 162.89193 73.157167 150.762502 148.09142 10.677543 142.026342 0.005891 -0.000199 0.005891 -8.319924 13.766794 -87.091386 -43.488344 1.419012 -81.533726 106.727458 -34.057877 -176.112433 179.95338 75.749827 0.038358 -142.283754 -7.051111 6.292686 -58.281696 87.440575 -41.548987 160.685463 62.81825 -88.660437
-2.2881 51.7733 -156.365 -14.218543 -25.660005 11.334267 8.634362 1.516079 88.061433 -3.161281 -5.897886 -85.828909 -6.480941 10.082625 -10.920255 9.687008 -11.740418 -1.34945 -0.002181 0.0 -0.003469 0.003347 0.0 0.000158 -153.593732 -75.693741 -178.264009 138.627878 5.221332 -160.574837 -2.442383 -23.836155 106.89817 -9.068144 -27.69108 -6.896381 175.880555 -21.257675 88.493394 -142.659798 13.267989 76.548456 -169.124938 -47.194098 121.484103 26.50139 -24.813543 -9.902371 -82.840482 61.112113 74.532218 3.130855 0.868152 0.275836 -0.001346 -0.06069 -0.020103 -150.3849 37.172146 165.302795 0.098125 0.258332 0.091781 -2.41459 -12.154549 -4.291137 -3.206065 -26.010343 5.10619 9.469611 76.634065 -75.891869 -59.839742 -62.477272 -87.823523 38.385245 76.048294 -28.223162 93.743896 37.964279 -53.548487 92.518212 -5.625693 -63.99904 145.488251 -6.528313 -118.750379 168.91587 -28.308389 -118.627392 39.290281 53.365696 -32.878144 163.367092 -5.604612 -143.332217 -0.005003 1.771503 -0.555717 -11.427391 -36.420019 4.390424 -19.448309 67.282666 -13.09009 -67.072554 85.310563 29.793741 -179.998507 75.750547 -0.001022 91.829658 81.821903 0.0 -35.881164 8.409839 178.877398 78.996659 69.232514 -179.097495 0.000607 0.000784 0.00091 84.796285 -51.221333 -11.398209 -85.417318 -5.515125 30.642839 80.500902 44.46428 -6.946174
-2.2975 51.8166 -156.392 -14.2378 -25.724881 11.343091 8.653042 1.56652 88.396385 -3.141835 -5.786413 -86.121362 -7.545039 10.338741 -16.827255 12.114393 -10.874877 4.685543 0.002885 -0.0 -0.003141 -0.003025 -0.0 0.000467 -155.809432 -5.555394 162.266852 107.751459 -29.086918 131.990068 -160.139873 16.880023 30.074754 -168.140541 -2.819202 143.403804 -68.482572 37.953789 35.659522 -149.304443 -35.390621 85.671043 -140.684775 1.505816 116.182991 -169.819218 -28.145232 118.308778 173.124787 -66.297925 137.615419 2.768159 0.804862 0.364438 0.000189 -0.018532 -0.005693 -156.526452 -27.66602 175.091522 -163.633139 74.5742 -150.524063 -146.959254 7.357212 -141.21885 78.728209 68.390273 -81.807809 19.78439 -11.397859 -50.86161 21.67182 59.490793 47.509419 -128.098487 -56.543182 -117.68893 -71.830615 -48.264593 -25.791409 19.877904 -13.214001 19.129785 0.327277 0.53014 -0.185236 152.105843 -0.026209 -109.286748 -6.531835 -20.415119 2.718549 7.380365 26.183141 -6.040116 -0.004514 1.771306 -0.557016 53.045397 -86.669749 74.403376 86.001547 -50.497725 84.370677 -68.032735 84.813825 28.892685 -179.992577 75.750952 -0.006107 84.800399 80.643498 95.08255 -4.133826 31.836691 -43.111924 -115.023995 -21.6105 -0.465976 179.996431 75.750952 0.002442 -142.289716 -6.689348 6.017048 90.066754 79.353327 7.266398 -158.084687 41.628524 77.315274
-2.2765 51.827400000000004 -156.478 -14.178523 -25.648829 11.390325 10.900292 3.9451 -0.300468 3.342229 -5.591517 3.030579 -7.55409 10.429155 -17.212211 12.454628 -11.616176 5.271886 -0.003435 0.0 -0.001917 0.002289 -0.0 -0.001978 -142.973814 39.431743 147.390332 93.04641 -21.564845 85.587071 2.794306 -10.143035 109.329602 -10.508833 -21.718696 -5.984862 86.309863 -50.59908 35.755382 -58.486831 31.179724 19.364257 -2.712481 4.268324 1.599603 -165.82912 -18.994634 109.772026 -161.517827 -9.30429 143.625961 174.580294 -56.637315 137.741404 0.000796 0.063947 0.018906 11.18812 -15.763818 -1.93871 -124.850552 -29.039031 -122.622433 -147.343707 13.454741 -142.453169 13.744173 42.431328 -15.570054 150.19761 -5.904917 -118.028355 70.186003 -56.383044 131.294502 -71.435314 -62.72161 -63.251482 -6.463174 -6.452875 0.633982 91.424362 23.302078 -82.195219 -60.462321 -70.523355 -15.711093 -10.728955 10.018214 3.498354 160.938659 -7.488088 -143.367385 169.568042 -23.669523 -143.914397 145.119805 0.267089 179.213804 -10.197133 -0.130435 9.011753 86.000818 -50.497706 84.370935 158.924972 52.765963 148.308703 -179.997698 75.749883 -0.002031 92.209814 79.551557 177.531055 43.575243 -2.475203 98.936186 -130.829261 52.577205 -131.478313 -0.004935 0.000587 -0.002468 84.122756 -53.566887 173.971804 90.395347 0.897569 163.155064 -60.209458 85.911216 140.732608
-2.2585 51.8352 -156.522 -14.113787 -25.37557 11.391298 8.400597 1.726795 89.44099 -3.314514 -5.723198 -87.282755 7.390982 15.686959 78.658929 -21.778394 2.366522 -91.285502 -0.000302 0.0 -0.002109 -0.000302 0.0 -0.002109 -9.651091 34.836232 11.199216 -101.618729 -17.747568 -177.391168 -6.788911 -4.412186 -143.45167 -166.265681 2.957281 141.882971 -166.63127 -4.304757 89.772184 5.149195 -53.96176 13.118259 -145.338134 -6.264965 118.677019 -20.200357 42.151818 8.575398 -145.288635 29.524687 132.692897 -34.644763 54.959162 29.448682 -145.118306 0.226807 -179.199206 2.636899 -43.839152 -17.910742 -146.183043 15.331491 -142.713777 -126.627288 -29.695363 -124.086603 80.166418 68.371714 -83.260776 87.912635 31.187556 -69.513152 -93.811866 35.452415 103.078294 178.621818 40.936318 -153.889314 78.030546 38.689544 -42.412673 19.846755 -5.663648 -32.701959 150.885064 -16.291089 -120.979814 79.286751 57.448113 -61.512856 156.222177 6.265963 -140.788413 7.694664 26.587091 -6.616735 145.121515 1.080172 179.46828 -11.055099 63.110999 0.717844 0.344625 -0.890276 0.318102 -75.756943 86.572522 37.102624 -0.028847 0.000644 -0.021635 -9.449775 14.653556 -0.0 8.492628 34.834009 84.332293 -83.046767 -35.786353 -155.529153 -0.000388 0.000638 0.000499 84.303956 -53.861977 -180.0 89.437303 -17.934293 -7.895776 -119.366707 57.012803 31.757827
